<svg width="152" height="154" viewBox="0 0 152 154" fill="none" xmlns="http://www.w3.org/2000/svg">
<path id="Ellipse 2" d="M0.406446 57.9003C4.184 43.147 12.2516 29.8453 23.5889 19.6772C34.9263 9.50899 49.0243 2.93111 64.1001 0.775299C79.1759 -1.38052 94.5524 0.982578 108.285 7.56576C122.018 14.1489 133.49 24.6565 141.251 37.7597C149.012 50.863 152.713 65.9733 151.887 81.1801C151.06 96.3867 145.742 111.007 136.606 123.191C127.471 135.376 114.927 144.578 100.561 149.633C86.1957 154.689 70.6536 155.371 55.9004 151.593L63.5822 121.592C72.4017 123.851 81.6929 123.443 90.2807 120.421C98.8685 117.398 106.367 111.898 111.829 104.613C117.29 97.3295 120.469 88.5895 120.963 79.4988C121.458 70.4081 119.245 61.3751 114.605 53.5419C109.966 45.7087 103.108 39.4272 94.8981 35.4917C86.6886 31.5562 77.4964 30.1435 68.484 31.4323C59.4715 32.7211 51.0437 36.6534 44.2661 42.732C37.4886 48.8106 32.6657 56.7624 30.4075 65.582L0.406446 57.9003Z" fill="#FABE4C"/>
</svg>
